P3
50 50
255
190 190 190 190 190 190 189 189 189 188 188 188 188 188 188 187 187 187 186 186 186 185 185 185 185 185 185 184 184 184 183 183 183 183 183 183 182 182 182 181 181 181 181 181 181 180 180 180 179 179 179 178 178 178 178 178 178 177 177 177 176 176 176 176 176 176 175 175 175 174 174 174 174 174 174 173 173 173 172 172 172 172 172 172 171 171 171 170 170 170 170 170 170 169 169 169 168 168 168 168 168 168 167 167 167 166 166 166 166 166 166 165 165 165 164 164 164 164 164 164 163 163 163 162 162 162 162 162 162 161 161 161 160 160 160 160 160 160 159 159 159 159 159 159 158 158 158 157 157 157 
190 190 190 189 189 189 188 188 188 188 188 188 187 187 187 186 186 186 186 186 186 185 185 185 184 184 184 184 184 184 183 183 183 182 182 182 181 181 181 181 181 181 180 180 180 179 179 179 179 179 179 178 178 178 177 177 177 177 177 177 176 176 176 175 175 175 175 175 175 174 174 174 173 173 173 173 173 173 172 172 172 171 171 171 171 171 171 170 170 170 169 169 169 169 169 169 168 168 168 167 167 167 167 167 167 166 166 166 165 165 165 165 165 165 164 164 164 163 163 163 163 163 163 162 162 162 161 161 161 161 161 161 160 160 160 159 159 159 159 159 159 158 158 158 158 158 158 157 157 157 
189 189 189 189 189 189 188 188 188 187 187 187 187 187 187 186 186 186 185 185 185 184 184 184 184 184 184 183 183 183 182 182 182 182 182 182 181 181 181 180 180 180 180 180 180 179 179 179 178 178 178 178 178 178 177 177 177 176 176 176 176 176 176 175 175 175 174 174 174 173 173 173 173 173 173 172 172 172 171 171 171 171 171 171 170 170 170 169 169 169 169 169 169 168 168 168 167 167 167 167 167 167 166 166 166 166 166 166 165 165 165 164 164 164 164 164 164 163 163 163 162 162 162 162 162 162 161 161 161 160 160 160 160 160 160 159 159 159 159 159 159 158 158 158 157 157 157 157 157 157 
189 189 189 188 188 188 187 187 187 187 187 187 186 186 186 185 185 185 185 185 185 184 184 184 183 183 183 183 183 183 182 182 182 181 181 181 181 181 181 180 180 180 179 179 179 178 178 178 178 178 178 177 177 177 176 176 176 176 176 176 175 175 175 174 174 174 174 174 174 173 173 173 172 172 172 172 172 172 171 171 171 170 170 170 170 170 170 169 169 169 168 168 168 168 168 168 167 167 167 166 166 166 166 166 166 165 165 165 164 164 164 164 164 164 163 163 163 163 163 163 162 162 162 161 161 161 161 161 161 160 160 160 159 159 159 159 159 159 158 158 158 158 158 158 157 157 157 156 156 156 
188 188 188 187 187 187 187 187 187 186 186 186 185 185 185 185 185 185 184 184 184 183 183 183 183 183 183 182 182 182 181 181 181 181 181 181 180 180 180 179 179 179 179 179 179 178 178 178 177 177 177 177 177 177 176 176 176 175 175 175 175 175 175 174 174 174 173 173 173 173 173 173 172 172 172 171 171 171 171 171 171 170 170 170 169 169 169 169 169 169 168 168 168 167 167 167 167 167 167 166 166 166 165 165 165 165 165 165 164 164 164 163 163 163 163 163 163 162 162 162 162 162 162 161 161 161 160 160 160 160 160 160 159 159 159 158 158 158 158 158 158 157 157 157 157 157 157 156 156 156 
188 188 188 187 187 187 186 186 186 186 186 186 185 185 185 184 184 184 184 184 184 183 183 183 182 182 182 182 182 182 181 181 181 180 180 180 180 180 180 179 179 179 178 178 178 178 178 178 177 177 177 176 176 176 176 176 176 175 175 175 174 174 174 174 174 174 173 173 173 172 172 172 172 172 172 171 171 171 170 170 170 170 170 170 169 169 169 168 168 168 168 168 168 167 167 167 166 166 166 166 166 166 165 165 165 164 164 164 164 164 164 163 163 163 162 162 162 162 162 162 161 161 161 161 161 161 160 160 160 159 159 159 159 159 159 158 158 158 157 157 157 157 157 157 156 156 156 156 156 156 
187 187 187 186 186 186 186 186 186 185 185 185 184 184 184 184 184 184 183 183 183 182 182 182 182 182 182 181 181 181 180 180 180 180 180 180 179 179 179 178 178 178 178 178 178 177 177 177 176 176 176 176 176 176 175 175 175 174 174 174 174 174 174 173 173 173 172 172 172 172 172 172 171 171 171 170 170 170 170 170 170 169 169 169 168 168 168 168 168 168 167 167 167 167 167 167 166 166 166 165 165 165 165 165 165 164 164 164 163 163 163 163 163 163 162 162 162 161 161 161 161 161 161 160 160 160 160 160 160 159 159 159 158 158 158 158 158 158 157 157 157 157 157 157 156 156 156 155 155 155 
186 186 186 186 186 186 185 185 185 185 185 185 184 184 184 183 183 183 183 183 183 182 182 182 181 181 181 181 181 181 180 180 180 179 179 179 179 179 179 178 178 178 177 177 177 177 177 177 176 176 176 175 175 175 175 175 175 174 174 174 173 173 173 173 173 173 172 172 172 171 171 171 171 171 171 170 170 170 169 169 169 169 169 169 168 168 168 167 167 167 167 167 167 166 166 166 165 165 165 165 165 165 164 164 164 164 164 164 163 163 163 162 162 162 162 162 162 161 161 161 160 160 160 160 160 160 159 159 159 159 159 159 158 158 158 157 157 157 157 157 157 156 156 156 156 156 156 155 155 155 
186 186 186 185 185 185 185 185 185 184 184 184 183 183 183 183 183 183 182 182 182 181 181 181 181 181 181 180 180 180 179 179 179 179 179 179 178 178 178 177 177 177 177 177 177 176 176 176 175 175 175 175 175 175 174 174 174 173 173 173 173 173 173 172 172 172 172 172 172 171 171 171 170 170 170 170 170 170 169 169 169 168 168 168 168 168 168 167 167 167 166 166 166 166 166 166 165 165 165 164 164 164 164 164 164 163 163 163 163 163 163 162 162 162 161 161 161 161 161 161 160 160 160 159 159 159 159 159 159 158 158 158 158 158 158 157 157 157 156 156 156 156 156 156 155 155 155 155 155 155 
255 255 255 185 185 185 184 184 184 183 183 183 183 183 183 182 182 182 181 181 181 181 181 181 180 180 180 179 179 179 179 179 179 178 178 178 178 178 178 177 177 177 176 176 176 176 176 176 175 175 175 174 174 174 174 174 174 173 173 173 172 172 172 172 172 172 171 171 171 170 170 170 170 170 170 169 169 169 168 168 168 168 168 168 167 167 167 167 167 167 166 166 166 165 165 165 165 165 165 164 164 164 163 163 163 163 163 163 162 162 162 162 162 162 161 161 161 160 160 160 160 160 160 159 159 159 158 158 158 158 158 158 157 157 157 157 157 157 156 156 156 155 155 155 155 155 155 154 154 154 
255 255 255 184 184 184 183 183 183 183 183 183 182 182 182 182 182 182 181 181 181 180 180 180 180 180 180 179 179 179 178 178 178 178 178 178 177 177 177 176 176 176 176 176 176 175 175 175 174 174 174 174 174 174 173 173 173 173 173 173 172 172 172 171 171 171 171 171 171 170 170 170 169 169 169 169 169 169 168 168 168 167 167 167 167 167 167 166 166 166 165 165 165 165 165 165 164 164 164 164 164 164 163 163 163 162 162 162 162 162 162 161 161 161 160 160 160 160 160 160 159 159 159 159 159 159 158 158 158 157 157 157 157 157 157 156 156 156 156 156 156 155 155 155 154 154 154 154 154 154 
255 255 255 184 184 184 183 183 183 182 182 182 182 182 182 181 181 181 180 180 180 180 180 180 179 179 179 178 178 178 178 178 178 177 177 177 177 177 177 176 176 176 175 175 175 175 175 175 174 174 174 173 173 173 173 173 173 172 172 172 171 171 171 171 171 171 170 170 170 169 169 169 169 169 169 168 168 168 168 168 168 167 167 167 166 166 166 166 166 166 165 165 165 164 164 164 164 164 164 163 163 163 163 163 163 162 162 162 161 161 161 161 161 161 160 160 160 159 159 159 159 159 159 158 158 158 158 158 158 157 157 157 156 156 156 156 156 156 155 155 155 155 155 155 154 154 154 154 154 154 
255 255 255 183 183 183 182 182 182 182 182 182 181 181 181 180 180 180 180 180 180 179 179 179 179 179 179 178 178 178 177 177 177 177 177 177 176 176 176 175 175 175 175 175 175 174 174 174 173 173 173 173 173 173 172 172 172 172 172 172 171 171 171 170 170 170 170 170 170 169 169 169 168 168 168 168 168 168 167 167 167 166 166 166 166 166 166 165 165 165 165 165 165 164 164 164 163 163 163 163 163 163 162 162 162 162 162 162 161 161 161 160 160 160 160 160 160 159 159 159 158 158 158 158 158 158 157 157 157 157 157 157 156 156 156 156 156 156 155 155 155 154 154 154 154 154 154 153 153 153 
255 255 255 255 255 255 182 182 182 181 181 181 180 180 180 180 180 180 179 179 179 179 179 179 178 178 178 177 177 177 177 177 177 176 176 176 175 175 175 175 175 175 174 174 174 174 174 174 173 173 173 172 172 172 172 172 172 171 171 171 170 170 170 170 170 170 169 169 169 169 169 169 168 168 168 167 167 167 167 167 167 166 166 166 165 165 165 165 165 165 164 164 164 164 164 164 163 163 163 162 162 162 162 162 162 161 161 161 160 160 160 160 160 160 159 159 159 159 159 159 158 158 158 157 157 157 157 157 157 156 156 156 156 156 156 155 155 155 155 155 155 154 154 154 153 153 153 153 153 153 
255 255 255 255 255 255 181 181 181 180 180 180 180 180 180 179 179 179 179 179 179 178 178 178 177 177 177 177 177 177 176 176 176 176 176 176 175 175 175 174 174 174 174 174 174 173 173 173 172 172 172 172 172 172 171 171 171 171 171 171 170 170 170 169 169 169 169 169 169 168 168 168 25 25 25 25 25 25 166 166 166 166 166 166 165 165 165 164 164 164 164 164 164 163 163 163 162 162 162 162 162 162 161 161 161 161 161 161 160 160 160 159 159 159 159 159 159 158 158 158 158 158 158 157 157 157 156 156 156 156 156 156 155 155 155 155 155 155 154 154 154 154 154 154 153 153 153 152 152 152 
255 255 255 255 255 255 181 181 181 180 180 180 179 179 179 179 179 179 178 178 178 177 177 177 177 177 177 176 176 176 176 176 176 175 175 175 174 174 174 174 174 174 173 173 173 173 173 173 172 172 172 171 171 171 171 171 171 170 170 170 169 169 169 169 169 169 168 168 168 168 168 168 25 25 25 25 25 25 166 166 166 165 165 165 164 164 164 164 164 164 163 163 163 163 163 163 162 162 162 161 161 161 161 161 161 160 160 160 160 160 160 159 159 159 158 158 158 158 158 158 157 157 157 157 157 157 156 156 156 156 156 156 155 155 155 154 154 154 154 154 154 153 153 153 153 153 153 152 152 152 
255 255 255 255 255 255 180 180 180 179 179 179 179 179 179 178 178 178 177 177 177 177 177 177 176 176 176 176 176 176 175 175 175 174 174 174 174 174 174 173 173 173 173 173 173 172 172 172 171 171 171 171 171 171 170 170 170 170 170 170 169 169 169 168 168 168 168 168 168 167 167 167 25 25 25 25 25 25 165 165 165 165 165 165 164 164 164 163 163 163 163 163 163 162 162 162 162 162 162 161 161 161 160 160 160 160 160 160 159 159 159 159 159 159 158 158 158 157 157 157 157 157 157 156 156 156 156 156 156 155 155 155 155 155 155 154 154 154 153 153 153 153 153 153 152 152 152 152 152 152 
255 255 255 255 255 255 255 255 255 179 179 179 178 178 178 177 177 177 177 177 177 176 176 176 176 176 176 175 175 175 174 174 174 174 174 174 173 173 173 173 173 173 172 172 172 171 171 171 171 171 171 170 170 170 170 170 170 169 169 169 168 168 168 168 168 168 167 167 167 167 167 167 25 25 25 25 25 25 165 165 165 164 164 164 164 164 164 163 163 163 162 162 162 162 162 162 161 161 161 161 161 161 160 160 160 159 159 159 159 159 159 158 158 158 158 158 158 157 157 157 156 156 156 156 156 156 155 155 155 155 155 155 154 154 154 154 154 154 153 153 153 152 152 152 152 152 152 151 151 151 
255 255 255 255 255 255 255 255 255 178 178 178 177 177 177 177 177 177 176 176 176 176 176 176 175 175 175 175 175 175 174 174 174 173 173 173 173 173 173 172 172 172 172 172 172 171 171 171 170 170 170 170 170 170 169 169 169 168 168 168 168 168 168 167 167 167 167 167 167 166 166 166 25 25 25 25 25 25 164 164 164 164 164 164 163 163 163 162 162 162 162 162 162 161 161 161 161 161 161 160 160 160 160 160 160 159 159 159 158 158 158 158 158 158 157 157 157 157 157 157 156 156 156 155 155 155 155 155 155 154 154 154 154 154 154 153 153 153 153 153 153 152 152 152 151 151 151 151 151 151 
255 255 255 255 255 255 255 255 255 177 177 177 177 177 177 176 176 176 176 176 176 175 175 175 175 175 175 174 174 174 173 173 173 173 173 173 172 172 172 172 172 172 171 171 171 170 170 170 170 170 170 169 169 169 169 169 169 168 168 168 167 167 167 167 167 167 166 166 166 166 166 166 25 25 25 25 25 25 164 164 164 163 163 163 163 163 163 162 162 162 161 161 161 161 161 161 160 160 160 160 160 160 159 159 159 158 158 158 158 158 158 157 157 157 157 157 157 156 156 156 156 156 156 155 155 155 154 154 154 154 154 154 153 153 153 153 153 153 152 152 152 152 152 152 151 151 151 151 151 151 
255 255 255 255 255 255 255 255 255 177 177 177 176 176 176 176 176 176 175 175 175 175 175 175 174 174 174 173 173 173 173 173 173 172 172 172 172 172 172 171 171 171 170 170 170 170 170 170 169 169 169 169 169 169 168 168 168 167 167 167 167 167 167 166 166 166 166 166 166 25 25 25 25 25 25 25 25 25 25 25 25 163 163 163 162 162 162 162 162 162 161 161 161 160 160 160 160 160 160 159 159 159 159 159 159 158 158 158 157 157 157 157 157 157 156 156 156 156 156 156 155 155 155 155 155 155 154 154 154 153 153 153 153 153 153 152 152 152 152 152 152 151 151 151 151 151 151 150 150 150 
255 255 255 255 255 255 255 255 255 255 255 255 176 176 176 175 175 175 175 175 175 174 174 174 173 173 173 173 173 173 172 172 172 172 172 172 171 171 171 170 170 170 170 170 170 169 169 169 169 169 169 168 168 168 168 168 168 167 167 167 166 166 166 166 166 166 165 165 165 25 25 25 25 25 25 25 25 25 25 25 25 162 162 162 162 162 162 161 161 161 160 160 160 160 160 160 159 159 159 159 159 159 158 158 158 158 158 158 157 157 157 156 156 156 156 156 156 155 155 155 155 155 155 154 154 154 154 154 154 153 153 153 152 152 152 152 152 152 151 151 151 151 151 151 150 150 150 150 150 150 
255 255 255 255 255 255 255 255 255 255 255 255 175 175 175 174 174 174 174 174 174 173 173 173 173 173 173 172 172 172 172 172 172 171 171 171 170 170 170 170 170 170 169 169 169 169 169 169 168 168 168 168 168 168 167 167 167 166 166 166 166 166 166 165 165 165 165 165 165 25 25 25 25 25 25 25 25 25 25 25 25 162 162 162 161 161 161 161 161 161 160 160 160 159 159 159 159 159 159 158 158 158 158 158 158 157 157 157 157 157 157 156 156 156 155 155 155 155 155 155 154 154 154 154 154 154 153 153 153 153 153 153 152 152 152 152 152 152 151 151 151 150 150 150 150 150 150 149 149 149 
255 255 255 255 255 255 255 255 255 255 255 255 174 174 174 174 174 174 173 173 173 173 173 173 172 172 172 172 172 172 171 171 171 170 170 170 170 170 170 169 169 169 169 169 169 168 168 168 168 168 168 167 167 167 166 166 166 166 166 166 165 165 165 165 165 165 164 164 164 25 25 25 25 25 25 25 25 25 25 25 25 161 161 161 161 161 161 160 160 160 160 160 160 159 159 159 158 158 158 158 158 158 157 157 157 157 157 157 156 156 156 156 156 156 155 155 155 154 154 154 154 154 154 153 153 153 153 153 153 152 152 152 152 152 152 151 151 151 151 151 151 150 150 150 149 149 149 149 149 149 
255 255 255 255 255 255 255 255 255 255 255 255 174 174 174 173 173 173 173 173 173 172 172 172 172 172 172 171 171 171 170 170 170 170 170 170 169 169 169 169 169 169 168 168 168 168 168 168 167 167 167 166 166 166 166 166 166 165 165 165 165 165 165 164 164 164 164 164 164 25 25 25 25 25 25 25 25 25 25 25 25 161 161 161 160 160 160 160 160 160 159 159 159 158 158 158 158 158 158 157 157 157 157 157 157 156 156 156 156 156 156 155 155 155 155 155 155 154 154 154 153 153 153 153 153 153 152 152 152 152 152 152 151 151 151 151 151 151 150 150 150 150 150 150 149 149 149 149 149 149 
255 255 255 255 255 255 255 255 255 255 255 255 255 255 255 173 173 173 172 172 172 172 172 172 171 171 171 170 170 170 170 170 170 169 169 169 169 169 169 168 168 168 168 168 168 167 167 167 166 166 166 166 166 166 165 165 165 165 165 165 164 164 164 164 164 164 20 25 15 20 25 15 20 25 15 20 25 15 97 121 72 76 96 57 160 160 160 159 159 159 159 159 159 158 158 158 157 157 157 157 157 157 156 156 156 156 156 156 155 155 155 155 155 155 154 154 154 154 154 154 153 153 153 152 152 152 152 152 152 151 151 151 151 151 151 150 150 150 150 150 150 149 149 149 149 149 149 148 148 148 
255 255 255 255 255 255 255 255 255 255 255 255 255 255 255 172 172 172 171 171 171 171 171 171 170 170 170 170 170 170 169 169 169 169 169 169 168 168 168 168 168 168 167 167 167 166 166 166 166 166 166 165 165 165 165 165 165 164 164 164 20 25 15 20 25 15 20 25 15 20 25 15 132 165 99 123 153 92 111 139 83 97 121 73 79 99 59 53 66 40 158 158 158 158 158 158 157 157 157 156 156 156 156 156 156 155 155 155 155 155 155 154 154 154 154 154 154 153 153 153 153 153 153 152 152 152 151 151 151 151 151 151 150 150 150 150 150 150 149 149 149 149 149 149 148 148 148 148 148 148 
255 255 255 255 255 255 255 255 255 255 255 255 255 255 255 171 171 171 171 171 171 170 170 170 170 170 170 169 169 169 169 169 169 168 168 168 168 168 168 167 167 167 166 166 166 166 166 166 165 165 165 165 165 165 164 164 164 20 25 15 20 25 15 20 25 15 20 25 15 20 25 15 137 171 102 127 159 95 116 146 87 104 130 78 89 111 67 71 88 53 45 56 33 157 157 157 156 156 156 156 156 156 155 155 155 155 155 155 154 154 154 154 154 154 153 153 153 153 153 153 152 152 152 152 152 152 151 151 151 150 150 150 150 150 150 149 149 149 149 149 149 148 148 148 148 148 148 147 147 147 
255 255 255 255 255 255 255 255 255 255 255 255 255 255 255 171 171 171 170 170 170 170 170 170 169 169 169 169 169 169 168 168 168 167 167 167 167 167 167 166 166 166 166 166 166 165 165 165 165 165 165 164 164 164 153 192 115 20 25 15 20 25 15 20 25 15 20 25 15 146 182 109 138 173 103 129 161 96 118 148 89 106 133 80 93 116 69 77 96 57 56 71 42 27 34 20 156 156 156 155 155 155 155 155 155 154 154 154 154 154 154 153 153 153 153 153 153 152 152 152 152 152 152 151 151 151 151 151 151 150 150 150 150 150 150 149 149 149 148 148 148 148 148 148 147 147 147 147 147 147 
255 255 255 255 255 255 255 255 255 255 255 255 255 255 255 255 255 255 170 170 170 169 169 169 169 169 169 168 168 168 167 167 167 167 167 167 166 166 166 166 166 166 165 165 165 165 165 165 164 164 164 139 173 104 20 25 15 20 25 15 20 25 15 20 25 15 152 190 114 145 181 109 137 172 103 128 160 96 118 148 88 107 133 80 93 117 70 78 98 59 61 76 45 37 47 28 20 25 15 155 155 155 154 154 154 154 154 154 153 153 153 153 153 153 152 152 152 152 152 152 151 151 151 151 151 151 150 150 150 150 150 150 149 149 149 149 149 149 148 148 148 148 148 148 147 147 147 146 146 146 
255 255 255 255 255 255 255 255 255 255 255 255 255 255 255 255 255 255 169 169 169 168 168 168 168 168 168 167 167 167 167 167 167 166 166 166 166 166 166 165 165 165 165 165 165 164 164 164 164 164 164 20 25 15 20 25 15 20 25 15 20 25 15 20 25 15 150 187 112 143 179 107 135 169 101 126 158 94 116 145 87 105 131 79 92 116 69 78 98 58 61 77 46 41 51 30 20 25 15 25 25 25 154 154 154 153 153 153 153 153 153 152 152 152 152 152 152 151 151 151 151 151 151 150 150 150 150 150 150 149 149 149 149 149 149 148 148 148 148 148 148 147 147 147 147 147 147 146 146 146 
255 255 255 255 255 255 255 255 255 255 255 255 255 255 255 255 255 255 168 168 168 168 168 168 167 167 167 167 167 167 166 166 166 166 166 166 165 165 165 165 165 165 164 164 164 164 164 164 163 163 163 20 25 15 20 25 15 20 25 15 20 25 15 20 25 15 146 183 109 139 174 104 132 165 99 123 154 92 113 141 85 102 128 76 90 112 67 76 95 57 60 75 45 40 51 30 20 25 15 25 25 25 25 25 25 153 153 153 152 152 152 152 152 152 151 151 151 151 151 151 150 150 150 150 150 150 149 149 149 149 149 149 148 148 148 148 148 148 147 147 147 147 147 147 146 146 146 146 146 146 
255 255 255 255 255 255 255 255 255 255 255 255 255 255 255 255 255 255 168 168 168 167 167 167 167 167 167 166 166 166 166 166 166 165 165 165 165 165 165 164 164 164 164 164 164 163 163 163 162 162 162 20 25 15 20 25 15 20 25 15 20 25 15 20 25 15 142 177 106 135 169 101 127 159 95 118 148 89 109 136 81 98 123 73 86 107 64 72 90 54 57 71 42 38 47 28 20 25 15 25 25 25 25 25 25 152 152 152 152 152 152 151 151 151 151 151 151 150 150 150 150 150 150 149 149 149 149 149 149 148 148 148 148 148 148 147 147 147 147 147 147 146 146 146 146 146 146 145 145 145 
255 255 255 255 255 255 255 255 255 255 255 255 255 255 255 255 255 255 255 255 255 167 167 167 166 166 166 165 165 165 165 165 165 164 164 164 164 164 164 163 163 163 163 163 163 162 162 162 126 157 94 20 25 15 20 25 15 20 25 15 20 25 15 20 25 15 136 170 102 129 162 97 122 152 91 113 142 85 104 130 78 93 116 70 81 101 61 67 84 50 52 65 39 33 42 25 20 25 15 20 25 15 25 25 25 25 25 25 151 151 151 151 151 151 150 150 150 150 150 150 149 149 149 149 149 149 148 148 148 148 148 148 147 147 147 147 147 147 146 146 146 146 146 146 145 145 145 145 145 145 
255 255 255 255 255 255 255 255 255 255 255 255 255 255 255 255 255 255 255 255 255 166 166 166 165 165 165 165 165 165 164 164 164 164 164 164 163 163 163 163 163 163 162 162 162 162 162 162 116 145 87 20 25 15 20 25 15 20 25 15 20 25 15 20 25 15 130 162 97 123 154 92 115 144 86 107 134 80 97 122 73 87 109 65 75 94 56 61 77 46 46 57 34 27 34 20 20 25 15 20 25 15 25 25 25 25 25 25 151 151 151 150 150 150 150 150 150 149 149 149 149 149 149 148 148 148 148 148 148 147 147 147 147 147 147 146 146 146 146 146 146 145 145 145 145 145 145 144 144 144 
255 255 255 255 255 255 255 255 255 255 255 255 255 255 255 255 255 255 255 255 255 165 165 165 165 165 165 164 164 164 164 164 164 163 163 163 163 163 163 162 162 162 162 162 162 161 161 161 161 161 161 20 25 15 20 25 15 20 25 15 20 25 15 20 25 15 122 153 91 116 145 87 108 135 81 100 125 75 90 113 68 80 100 60 68 85 51 54 68 40 38 48 29 20 25 15 20 25 15 25 25 25 25 25 25 25 25 25 25 25 25 150 150 150 149 149 149 149 149 149 148 148 148 148 148 148 147 147 147 147 147 147 146 146 146 146 146 146 145 145 145 145 145 145 144 144 144 144 144 144 
255 255 255 255 255 255 255 255 255 255 255 255 255 255 255 255 255 255 255 255 255 165 165 165 164 164 164 164 164 164 163 163 163 163 163 163 162 162 162 162 162 162 161 161 161 161 161 161 160 160 160 20 25 15 20 25 15 20 25 15 20 25 15 20 25 15 114 142 85 107 134 80 100 125 75 92 115 69 82 103 61 71 89 53 59 74 44 45 57 34 29 37 22 20 25 15 20 25 15 25 25 25 25 25 25 25 25 25 25 25 25 149 149 149 149 149 149 148 148 148 148 148 148 147 147 147 147 147 147 146 146 146 146 146 146 145 145 145 145 145 145 144 144 144 144 144 144 143 143 143 
255 255 255 255 255 255 255 255 255 255 255 255 255 255 255 255 255 255 255 255 255 255 255 255 163 163 163 163 163 163 162 162 162 162 162 162 162 162 162 161 161 161 161 161 161 160 160 160 160 160 160 20 25 15 20 25 15 20 25 15 20 25 15 20 25 15 104 130 78 98 122 73 91 113 68 82 103 61 73 91 54 62 77 46 49 62 37 35 44 26 20 25 15 20 25 15 20 25 15 25 25 25 25 25 25 25 25 25 25 25 25 149 149 149 148 148 148 148 148 148 147 147 147 147 147 147 146 146 146 146 146 146 145 145 145 145 145 145 145 145 145 144 144 144 144 144 144 143 143 143 
255 255 255 255 255 255 255 255 255 255 255 255 255 255 255 255 255 255 255 255 255 255 255 255 163 163 163 162 162 162 162 162 162 161 161 161 161 161 161 160 160 160 160 160 160 159 159 159 159 159 159 158 158 158 20 25 15 20 25 15 20 25 15 20 25 15 93 116 69 87 109 65 80 100 60 71 89 53 62 77 46 50 63 38 38 47 28 23 28 17 20 25 15 20 25 15 25 25 25 25 25 25 25 25 25 25 25 25 25 25 25 25 25 25 148 148 148 147 147 147 147 147 147 147 147 147 146 146 146 146 146 146 145 145 145 145 145 145 144 144 144 144 144 144 143 143 143 143 143 143 
255 255 255 255 255 255 255 255 255 255 255 255 255 255 255 255 255 255 255 255 255 255 255 255 162 162 162 162 162 162 161 161 161 161 161 161 160 160 160 160 160 160 159 159 159 159 159 159 158 158 158 158 158 158 157 157 157 20 25 15 20 25 15 20 25 15 20 25 15 74 92 55 67 84 50 58 73 44 49 61 36 37 46 28 23 29 17 20 25 15 20 25 15 25 25 25 25 25 25 25 25 25 25 25 25 25 25 25 25 25 25 25 25 25 147 147 147 147 147 147 147 147 147 146 146 146 146 146 146 145 145 145 145 145 145 144 144 144 144 144 144 143 143 143 143 143 143 142 142 142 
255 255 255 255 255 255 255 255 255 255 255 255 255 255 255 255 255 255 255 255 255 255 255 255 162 162 162 161 161 161 161 161 161 160 160 160 160 160 160 159 159 159 159 159 159 158 158 158 158 158 158 157 157 157 157 157 157 25 25 25 20 25 15 20 25 15 20 25 15 20 25 15 51 64 38 43 53 32 32 41 24 20 25 15 20 25 15 20 25 15 25 25 25 25 25 25 25 25 25 25 25 25 25 25 25 25 25 25 25 25 25 25 25 25 147 147 147 147 147 147 146 146 146 146 146 146 145 145 145 145 145 145 144 144 144 144 144 144 143 143 143 143 143 143 142 142 142 142 142 142 
255 255 255 255 255 255 255 255 255 255 255 255 255 255 255 255 255 255 255 255 255 255 255 255 255 255 255 174 174 174 174 174 174 173 173 173 173 173 173 172 172 172 172 172 172 171 171 171 170 170 170 170 170 170 169 169 169 25 25 25 25 25 25 20 25 15 20 25 15 20 25 15 20 25 15 21 27 16 20 25 15 20 25 15 20 25 15 25 25 25 25 25 25 25 25 25 25 25 25 25 25 25 25 25 25 25 25 25 25 25 25 159 159 159 159 159 159 158 158 158 158 158 158 157 157 157 157 157 157 156 156 156 156 156 156 155 155 155 155 155 155 154 154 154 154 154 154 153 153 153 
255 255 255 255 255 255 255 255 255 255 255 255 255 255 255 255 255 255 255 255 255 255 255 255 255 255 255 175 175 175 174 174 174 174 174 174 173 173 173 173 173 173 172 172 172 172 172 172 25 25 25 25 25 25 25 25 25 25 25 25 25 25 25 25 25 25 25 25 25 25 25 25 25 25 25 25 25 25 25 25 25 25 25 25 25 25 25 25 25 25 25 25 25 25 25 25 25 25 25 25 25 25 162 162 162 162 162 162 161 161 161 161 161 161 160 160 160 160 160 160 159 159 159 159 159 159 158 158 158 158 158 158 157 157 157 156 156 156 156 156 156 155 155 155 155 155 155 154 154 154 
255 255 255 255 255 255 255 255 255 255 255 255 255 255 255 255 255 255 255 255 255 255 255 255 255 255 255 176 176 176 175 175 175 175 175 175 174 174 174 174 174 174 25 25 25 25 25 25 25 25 25 25 25 25 25 25 25 25 25 25 25 25 25 25 25 25 25 25 25 25 25 25 25 25 25 25 25 25 25 25 25 25 25 25 166 166 166 166 166 166 165 165 165 165 165 165 164 164 164 164 164 164 163 163 163 163 163 163 162 162 162 162 162 162 161 161 161 161 161 161 160 160 160 160 160 160 159 159 159 159 159 159 158 158 158 158 158 158 157 157 157 157 157 157 156 156 156 156 156 156 
255 255 255 255 255 255 255 255 255 255 255 255 255 255 255 255 255 255 255 255 255 255 255 255 255 255 255 176 176 176 176 176 176 25 25 25 25 25 25 25 25 25 25 25 25 25 25 25 25 25 25 25 25 25 25 25 25 25 25 25 25 25 25 25 25 25 25 25 25 25 25 25 25 25 25 25 25 25 168 168 168 168 168 168 167 167 167 167 167 167 166 166 166 166 166 166 165 165 165 165 165 165 164 164 164 164 164 164 163 163 163 163 163 163 162 162 162 162 162 162 161 161 161 161 161 161 160 160 160 160 160 160 159 159 159 159 159 159 158 158 158 158 158 158 157 157 157 157 157 157 
255 255 255 255 255 255 255 255 255 255 255 255 255 255 255 255 255 255 255 255 255 255 255 255 255 255 255 255 255 255 25 25 25 25 25 25 25 25 25 25 25 25 25 25 25 25 25 25 25 25 25 25 25 25 25 25 25 25 25 25 25 25 25 25 25 25 25 25 25 25 25 25 25 25 25 169 169 169 169 169 169 168 168 168 168 168 168 168 168 168 167 167 167 167 167 167 166 166 166 166 166 166 165 165 165 165 165 165 164 164 164 164 164 164 163 163 163 163 163 163 162 162 162 162 162 162 161 161 161 161 161 161 160 160 160 160 160 160 159 159 159 159 159 159 158 158 158 158 158 158 
255 255 255 255 255 255 255 255 255 255 255 255 255 255 255 255 255 255 255 255 255 255 255 255 255 255 255 255 255 255 25 25 25 25 25 25 25 25 25 25 25 25 25 25 25 25 25 25 25 25 25 25 25 25 25 25 25 25 25 25 25 25 25 25 25 25 25 25 25 171 171 171 171 171 171 170 170 170 170 170 170 169 169 169 169 169 169 168 168 168 168 168 168 167 167 167 167 167 167 166 166 166 166 166 166 165 165 165 165 165 165 165 165 165 164 164 164 164 164 164 163 163 163 163 163 163 162 162 162 162 162 162 161 161 161 161 161 161 160 160 160 160 160 160 159 159 159 159 159 159 
255 255 255 255 255 255 255 255 255 255 255 255 255 255 255 255 255 255 255 255 255 255 255 255 255 255 255 255 255 255 25 25 25 25 25 25 25 25 25 25 25 25 25 25 25 25 25 25 25 25 25 25 25 25 25 25 25 25 25 25 25 25 25 25 25 25 172 172 172 172 172 172 171 171 171 171 171 171 170 170 170 170 170 170 169 169 169 169 169 169 169 169 169 168 168 168 168 168 168 167 167 167 167 167 167 166 166 166 166 166 166 165 165 165 165 165 165 164 164 164 164 164 164 164 164 164 163 163 163 163 163 163 162 162 162 162 162 162 161 161 161 161 161 161 160 160 160 160 160 160 
255 255 255 255 255 255 255 255 255 255 255 255 255 255 255 255 255 255 255 255 255 255 255 255 255 255 255 255 255 255 25 25 25 25 25 25 25 25 25 25 25 25 25 25 25 25 25 25 25 25 25 25 25 25 25 25 25 25 25 25 174 174 174 173 173 173 173 173 173 172 172 172 172 172 172 172 172 172 171 171 171 171 171 171 170 170 170 170 170 170 169 169 169 169 169 169 168 168 168 168 168 168 167 167 167 167 167 167 167 167 167 166 166 166 166 166 166 165 165 165 165 165 165 164 164 164 164 164 164 163 163 163 163 163 163 163 163 163 162 162 162 162 162 162 161 161 161 161 161 161 
255 255 255 255 255 255 255 255 255 255 255 255 255 255 255 255 255 255 255 255 255 255 255 255 255 255 255 255 255 255 255 255 255 25 25 25 25 25 25 25 25 25 25 25 25 25 25 25 25 25 25 25 25 25 25 25 25 175 175 175 174 174 174 174 174 174 173 173 173 173 173 173 173 173 173 172 172 172 172 172 172 171 171 171 171 171 171 170 170 170 170 170 170 169 169 169 169 169 169 169 169 169 168 168 168 168 168 168 167 167 167 167 167 167 166 166 166 166 166 166 166 166 166 165 165 165 165 165 165 164 164 164 164 164 164 163 163 163 163 163 163 163 163 163 162 162 162 162 162 162 
